<svg width="52" height="52" fill="none" xmlns="http://www.w3.org/2000/svg"><path d="M26 52c14.36 0 26-11.64 26-26S40.36 0 26 0 0 11.64 0 26s11.64 26 26 26Z" fill="#92F7FA"/><path d="M9.027 18.863 7.66 26.63c-.024.13.062.25.192.274l4.598.809 6.168-3.558a.754.754 0 0 1 1.03.275l.404.698.737-4.194a.235.235 0 0 0-.193-.274L9.302 18.671a.239.239 0 0 0-.275.192Z" fill="#2B41E3"/><path d="m12.763 38.312 4.044-2.335 2.436-6.692a.757.757 0 0 1 .968-.452l.756.274-.313-.544-.93-1.613-.885-1.53a.24.24 0 0 0-.323-.087l-9.932 5.743a.24.24 0 0 0-.087.323l3.943 6.826a.233.233 0 0 0 .323.087ZM42.94 18.863a.239.239 0 0 0-.274-.192l-4.598.809-4.574 5.459a.756.756 0 0 1-1.064.091l-.616-.52.11.617.323 1.834.308 1.743a.24.24 0 0 0 .275.192l11.294-1.993a.239.239 0 0 0 .193-.274l-1.377-7.766Z" fill="#2B41E3"/><path d="M23.027 32.82a.751.751 0 0 1 .453-.968l.756-.275-4.001-1.454a.241.241 0 0 0-.303.14l-1.806 4.954-.525 1.434-1.598 4.386c-.043.12.02.255.14.303l7.41 2.696a.239.239 0 0 0 .302-.14l1.599-4.385-2.427-6.692Z" fill="#2B41E3"/><path d="m34.36 36.651-6.167-3.557a.75.75 0 0 1-.274-1.03l.404-.699-4 1.454a.237.237 0 0 0-.14.303l3.924 10.78c.043.12.178.183.303.14l7.41-2.697a.234.234 0 0 0 .139-.303l-1.599-4.39Z" fill="#2B41E3"/><path d="m43.383 31.078-4.044-2.335-7.01 1.237a.758.758 0 0 1-.876-.611l-.14-.795-2.128 3.688a.233.233 0 0 0 .087.323l9.932 5.733c.11.068.255.024.322-.086L43.47 31.4a.24.24 0 0 0-.087-.322Zm-10.539-7.262c.101.082.25.073.332-.029l3.39-4.039.982-1.17 3-3.576a.236.236 0 0 0-.03-.333L34.478 9.6a.236.236 0 0 0-.333.03l-3 3.577v7.12a.754.754 0 0 1-.755.756h-.809l3.264 2.734Zm-11.41-4a.755.755 0 0 1 .611.876l-.14.794 3.26-2.734a.236.236 0 0 0 .029-.332l-7.371-8.791a.236.236 0 0 0-.332-.03l-6.042 5.07a.236.236 0 0 0-.03.332l3 3.577 7.015 1.238Z" fill="#2B41E3"/><path d="m25.983 17.827.4.477a.756.756 0 0 1-.092 1.064l-.616.52h4.256c.13 0 .236-.106.236-.236V8.179a.236.236 0 0 0-.236-.236h-7.89a.236.236 0 0 0-.237.236v4.67l4.18 4.978Z" fill="#2B41E3"/></svg>